<mxfile host="app.diagrams.net" modified="2021-06-07T21:31:59.749Z" agent="5.0 (Windows NT 10.0; Win64; x64) AppleWebKit/537.36 (KHTML, like Gecko) Chrome/90.0.4430.212 Safari/537.36" etag="PjoeZuPhABBXej6a7OH-" version="14.7.6" type="github">
  <diagram id="R2lEEEUBdFMjLlhIrx00" name="Page-1">
    <mxGraphModel dx="1038" dy="585" grid="1" gridSize="10" guides="1" tooltips="1" connect="1" arrows="1" fold="1" page="1" pageScale="1" pageWidth="850" pageHeight="1100" math="0" shadow="0" extFonts="Permanent Marker^https://fonts.googleapis.com/css?family=Permanent+Marker">
      <root>
        <mxCell id="0" />
        <mxCell id="1" parent="0" />
        <mxCell id="m80b0pTk8bMUsr6Yp0pk-1" value="name" style="ellipse;whiteSpace=wrap;html=1;" vertex="1" parent="1">
          <mxGeometry x="170" y="270" width="120" height="40" as="geometry" />
        </mxCell>
        <mxCell id="m80b0pTk8bMUsr6Yp0pk-2" style="edgeStyle=orthogonalEdgeStyle;rounded=0;orthogonalLoop=1;jettySize=auto;html=1;exitX=0.5;exitY=1;exitDx=0;exitDy=0;entryX=0.5;entryY=0;entryDx=0;entryDy=0;endArrow=none;endFill=0;" edge="1" parent="1" source="m80b0pTk8bMUsr6Yp0pk-3" target="m80b0pTk8bMUsr6Yp0pk-7">
          <mxGeometry relative="1" as="geometry" />
        </mxCell>
        <mxCell id="m80b0pTk8bMUsr6Yp0pk-3" value="starting year" style="ellipse;whiteSpace=wrap;html=1;" vertex="1" parent="1">
          <mxGeometry x="170" y="150" width="120" height="50" as="geometry" />
        </mxCell>
        <mxCell id="m80b0pTk8bMUsr6Yp0pk-4" style="edgeStyle=orthogonalEdgeStyle;rounded=0;orthogonalLoop=1;jettySize=auto;html=1;entryX=0.75;entryY=0;entryDx=0;entryDy=0;endArrow=none;endFill=0;" edge="1" parent="1" source="m80b0pTk8bMUsr6Yp0pk-5" target="m80b0pTk8bMUsr6Yp0pk-7">
          <mxGeometry relative="1" as="geometry" />
        </mxCell>
        <mxCell id="m80b0pTk8bMUsr6Yp0pk-5" value="genre" style="ellipse;whiteSpace=wrap;html=1;" vertex="1" parent="1">
          <mxGeometry x="160" y="70" width="120" height="50" as="geometry" />
        </mxCell>
        <mxCell id="m80b0pTk8bMUsr6Yp0pk-6" style="edgeStyle=orthogonalEdgeStyle;rounded=0;orthogonalLoop=1;jettySize=auto;html=1;exitX=1;exitY=0.5;exitDx=0;exitDy=0;entryX=1;entryY=0.75;entryDx=0;entryDy=0;endArrow=none;endFill=0;" edge="1" parent="1" source="m80b0pTk8bMUsr6Yp0pk-7" target="m80b0pTk8bMUsr6Yp0pk-12">
          <mxGeometry relative="1" as="geometry" />
        </mxCell>
        <mxCell id="m80b0pTk8bMUsr6Yp0pk-7" value="aritist" style="whiteSpace=wrap;html=1;align=center;" vertex="1" parent="1">
          <mxGeometry x="360" y="270" width="100" height="40" as="geometry" />
        </mxCell>
        <mxCell id="m80b0pTk8bMUsr6Yp0pk-8" style="edgeStyle=orthogonalEdgeStyle;rounded=0;orthogonalLoop=1;jettySize=auto;html=1;exitX=1;exitY=0.5;exitDx=0;exitDy=0;entryX=0.5;entryY=1;entryDx=0;entryDy=0;endArrow=none;endFill=0;" edge="1" parent="1" source="m80b0pTk8bMUsr6Yp0pk-9" target="m80b0pTk8bMUsr6Yp0pk-7">
          <mxGeometry relative="1" as="geometry" />
        </mxCell>
        <mxCell id="m80b0pTk8bMUsr6Yp0pk-9" value="member_count" style="ellipse;whiteSpace=wrap;html=1;align=center;dashed=1;" vertex="1" parent="1">
          <mxGeometry x="180" y="360" width="100" height="40" as="geometry" />
        </mxCell>
        <mxCell id="m80b0pTk8bMUsr6Yp0pk-10" value="" style="endArrow=none;html=1;rounded=0;entryX=1;entryY=0.5;entryDx=0;entryDy=0;" edge="1" parent="1" target="m80b0pTk8bMUsr6Yp0pk-1">
          <mxGeometry relative="1" as="geometry">
            <mxPoint x="360" y="290" as="sourcePoint" />
            <mxPoint x="480" y="320" as="targetPoint" />
          </mxGeometry>
        </mxCell>
        <mxCell id="m80b0pTk8bMUsr6Yp0pk-11" style="edgeStyle=orthogonalEdgeStyle;rounded=0;orthogonalLoop=1;jettySize=auto;html=1;exitX=0;exitY=0.5;exitDx=0;exitDy=0;endArrow=none;endFill=0;" edge="1" parent="1" source="m80b0pTk8bMUsr6Yp0pk-12">
          <mxGeometry relative="1" as="geometry">
            <mxPoint x="370" y="620" as="targetPoint" />
          </mxGeometry>
        </mxCell>
        <mxCell id="m80b0pTk8bMUsr6Yp0pk-12" value="Musician" style="whiteSpace=wrap;html=1;align=center;" vertex="1" parent="1">
          <mxGeometry x="360" y="590" width="100" height="40" as="geometry" />
        </mxCell>
        <mxCell id="m80b0pTk8bMUsr6Yp0pk-13" value="" style="line;strokeWidth=1;rotatable=0;dashed=0;labelPosition=right;align=left;verticalAlign=middle;spacingTop=0;spacingLeft=6;points=[];portConstraint=eastwest;" vertex="1" parent="1">
          <mxGeometry x="200" y="290" width="60" height="10" as="geometry" />
        </mxCell>
        <mxCell id="m80b0pTk8bMUsr6Yp0pk-14" style="edgeStyle=orthogonalEdgeStyle;rounded=0;orthogonalLoop=1;jettySize=auto;html=1;exitX=1;exitY=0.5;exitDx=0;exitDy=0;endArrow=none;endFill=0;entryX=0.5;entryY=0;entryDx=0;entryDy=0;" edge="1" parent="1" source="m80b0pTk8bMUsr6Yp0pk-15" target="m80b0pTk8bMUsr6Yp0pk-12">
          <mxGeometry relative="1" as="geometry">
            <mxPoint x="390" y="580" as="targetPoint" />
            <Array as="points">
              <mxPoint x="403" y="480" />
              <mxPoint x="403" y="590" />
            </Array>
          </mxGeometry>
        </mxCell>
        <mxCell id="m80b0pTk8bMUsr6Yp0pk-15" value="SIN" style="ellipse;whiteSpace=wrap;html=1;align=center;" vertex="1" parent="1">
          <mxGeometry x="190" y="460" width="100" height="40" as="geometry" />
        </mxCell>
        <mxCell id="m80b0pTk8bMUsr6Yp0pk-16" value="" style="line;strokeWidth=1;rotatable=0;dashed=0;labelPosition=right;align=left;verticalAlign=middle;spacingTop=0;spacingLeft=6;points=[];portConstraint=eastwest;" vertex="1" parent="1">
          <mxGeometry x="210" y="480" width="50" height="10" as="geometry" />
        </mxCell>
        <mxCell id="m80b0pTk8bMUsr6Yp0pk-17" style="edgeStyle=orthogonalEdgeStyle;rounded=0;orthogonalLoop=1;jettySize=auto;html=1;exitX=1;exitY=0.5;exitDx=0;exitDy=0;endArrow=none;endFill=0;entryX=0;entryY=0.5;entryDx=0;entryDy=0;" edge="1" parent="1" source="m80b0pTk8bMUsr6Yp0pk-18" target="m80b0pTk8bMUsr6Yp0pk-12">
          <mxGeometry relative="1" as="geometry">
            <mxPoint x="350" y="610" as="targetPoint" />
            <Array as="points">
              <mxPoint x="325" y="540" />
              <mxPoint x="325" y="600" />
              <mxPoint x="360" y="600" />
            </Array>
          </mxGeometry>
        </mxCell>
        <mxCell id="m80b0pTk8bMUsr6Yp0pk-18" value="first_name" style="ellipse;whiteSpace=wrap;html=1;align=center;" vertex="1" parent="1">
          <mxGeometry x="190" y="520" width="100" height="40" as="geometry" />
        </mxCell>
        <mxCell id="m80b0pTk8bMUsr6Yp0pk-19" style="edgeStyle=orthogonalEdgeStyle;rounded=0;orthogonalLoop=1;jettySize=auto;html=1;endArrow=none;endFill=0;entryX=0;entryY=0.75;entryDx=0;entryDy=0;" edge="1" parent="1" source="m80b0pTk8bMUsr6Yp0pk-20" target="m80b0pTk8bMUsr6Yp0pk-12">
          <mxGeometry relative="1" as="geometry">
            <mxPoint x="320" y="640" as="targetPoint" />
          </mxGeometry>
        </mxCell>
        <mxCell id="m80b0pTk8bMUsr6Yp0pk-20" value="last_name" style="ellipse;whiteSpace=wrap;html=1;align=center;" vertex="1" parent="1">
          <mxGeometry x="190" y="585" width="100" height="40" as="geometry" />
        </mxCell>
        <mxCell id="m80b0pTk8bMUsr6Yp0pk-21" style="edgeStyle=orthogonalEdgeStyle;rounded=0;orthogonalLoop=1;jettySize=auto;html=1;entryX=0.4;entryY=1;entryDx=0;entryDy=0;entryPerimeter=0;endArrow=none;endFill=0;" edge="1" parent="1" source="m80b0pTk8bMUsr6Yp0pk-22" target="m80b0pTk8bMUsr6Yp0pk-12">
          <mxGeometry relative="1" as="geometry" />
        </mxCell>
        <mxCell id="m80b0pTk8bMUsr6Yp0pk-22" value="instument" style="ellipse;whiteSpace=wrap;html=1;align=center;" vertex="1" parent="1">
          <mxGeometry x="190" y="650" width="100" height="40" as="geometry" />
        </mxCell>
        <mxCell id="m80b0pTk8bMUsr6Yp0pk-23" style="rounded=0;orthogonalLoop=1;jettySize=auto;html=1;exitX=1;exitY=0.5;exitDx=0;exitDy=0;endArrow=none;endFill=0;entryX=0.644;entryY=1.02;entryDx=0;entryDy=0;entryPerimeter=0;edgeStyle=orthogonalEdgeStyle;" edge="1" parent="1" source="m80b0pTk8bMUsr6Yp0pk-24" target="m80b0pTk8bMUsr6Yp0pk-12">
          <mxGeometry relative="1" as="geometry">
            <mxPoint x="450" y="670" as="targetPoint" />
          </mxGeometry>
        </mxCell>
        <mxCell id="m80b0pTk8bMUsr6Yp0pk-24" value="email_address" style="ellipse;whiteSpace=wrap;html=1;align=center;" vertex="1" parent="1">
          <mxGeometry x="190" y="710" width="100" height="40" as="geometry" />
        </mxCell>
      </root>
    </mxGraphModel>
  </diagram>
</mxfile>
